<?xml version="1.0" encoding="UTF-8"?>
<!-- Do not edit this file with editors other than draw.io -->
<!DOCTYPE svg PUBLIC "-//W3C//DTD SVG 1.1//EN" "http://www.w3.org/Graphics/SVG/1.1/DTD/svg11.dtd">
<svg xmlns="http://www.w3.org/2000/svg" style="background: transparent; background-color: transparent; color-scheme: light dark;" xmlns:xlink="http://www.w3.org/1999/xlink" version="1.1" width="73px" height="64px" viewBox="-0.5 -0.5 73 64" content="&lt;mxfile host=&quot;app.diagrams.net&quot; agent=&quot;Mozilla/5.0 (Windows NT 10.0; Win64; x64) AppleWebKit/537.36 (KHTML, like Gecko) Chrome/140.0.0.0 Safari/537.36 Edg/140.0.0.0&quot; version=&quot;28.2.1&quot; scale=&quot;1&quot; border=&quot;0&quot;&gt;&#10;  &lt;diagram name=&quot;Página-1&quot; id=&quot;rODGoJWUoAP5MeZn2Dls&quot;&gt;&#10;    &lt;mxGraphModel dx=&quot;709&quot; dy=&quot;395&quot; grid=&quot;1&quot; gridSize=&quot;10&quot; guides=&quot;1&quot; tooltips=&quot;1&quot; connect=&quot;1&quot; arrows=&quot;1&quot; fold=&quot;1&quot; page=&quot;1&quot; pageScale=&quot;1&quot; pageWidth=&quot;1654&quot; pageHeight=&quot;1169&quot; math=&quot;0&quot; shadow=&quot;0&quot;&gt;&#10;      &lt;root&gt;&#10;        &lt;mxCell id=&quot;0&quot; /&gt;&#10;        &lt;mxCell id=&quot;1&quot; parent=&quot;0&quot; /&gt;&#10;        &lt;mxCell id=&quot;2&quot; value=&quot;&quot; style=&quot;verticalLabelPosition=bottom;html=1;verticalAlign=top;align=center;strokeColor=none;fillColor=#00BEF2;shape=mxgraph.azure.storage_blob;&quot; vertex=&quot;1&quot; parent=&quot;1&quot;&gt;&#10;          &lt;mxGeometry x=&quot;397.5&quot; y=&quot;1204.25&quot; width=&quot;72.5&quot; height=&quot;63.25&quot; as=&quot;geometry&quot; /&gt;&#10;        &lt;/mxCell&gt;&#10;      &lt;/root&gt;&#10;    &lt;/mxGraphModel&gt;&#10;  &lt;/diagram&gt;&#10;&lt;/mxfile&gt;&#10;"><defs/><g><g data-cell-id="0"><g data-cell-id="1"><g data-cell-id="LGeSOMtKEfXHVlF47Jwi-1"/><g data-cell-id="LGeSOMtKEfXHVlF47Jwi-4"/><g data-cell-id="LGeSOMtKEfXHVlF47Jwi-5"/><g data-cell-id="LGeSOMtKEfXHVlF47Jwi-6"/><g data-cell-id="LGeSOMtKEfXHVlF47Jwi-7"/><g data-cell-id="LGeSOMtKEfXHVlF47Jwi-8"/><g data-cell-id="LGeSOMtKEfXHVlF47Jwi-9"/><g data-cell-id="LGeSOMtKEfXHVlF47Jwi-16"/><g data-cell-id="LGeSOMtKEfXHVlF47Jwi-17"/><g data-cell-id="LGeSOMtKEfXHVlF47Jwi-18"/><g data-cell-id="LGeSOMtKEfXHVlF47Jwi-21"/><g data-cell-id="LGeSOMtKEfXHVlF47Jwi-27"/><g data-cell-id="LGeSOMtKEfXHVlF47Jwi-28"/><g data-cell-id="LGeSOMtKEfXHVlF47Jwi-29"/><g data-cell-id="LGeSOMtKEfXHVlF47Jwi-30"/><g data-cell-id="LGeSOMtKEfXHVlF47Jwi-33"/><g data-cell-id="LGeSOMtKEfXHVlF47Jwi-36"/><g data-cell-id="LGeSOMtKEfXHVlF47Jwi-37"/><g data-cell-id="LGeSOMtKEfXHVlF47Jwi-40"/><g data-cell-id="LGeSOMtKEfXHVlF47Jwi-48"/><g data-cell-id="LGeSOMtKEfXHVlF47Jwi-49"/><g data-cell-id="LGeSOMtKEfXHVlF47Jwi-52"/><g data-cell-id="LGeSOMtKEfXHVlF47Jwi-60"/><g data-cell-id="LGeSOMtKEfXHVlF47Jwi-61"/><g data-cell-id="LGeSOMtKEfXHVlF47Jwi-63"/><g data-cell-id="LGeSOMtKEfXHVlF47Jwi-64"/><g data-cell-id="LGeSOMtKEfXHVlF47Jwi-69"/><g data-cell-id="LGeSOMtKEfXHVlF47Jwi-72"/><g data-cell-id="LGeSOMtKEfXHVlF47Jwi-73"/><g data-cell-id="LGeSOMtKEfXHVlF47Jwi-76"/><g data-cell-id="LGeSOMtKEfXHVlF47Jwi-85"/><g data-cell-id="LGeSOMtKEfXHVlF47Jwi-86"/><g data-cell-id="LGeSOMtKEfXHVlF47Jwi-89"/><g data-cell-id="LGeSOMtKEfXHVlF47Jwi-97"/><g data-cell-id="LGeSOMtKEfXHVlF47Jwi-98"/><g data-cell-id="LGeSOMtKEfXHVlF47Jwi-101"/><g data-cell-id="LGeSOMtKEfXHVlF47Jwi-106"/><g data-cell-id="LGeSOMtKEfXHVlF47Jwi-110"/><g data-cell-id="LGeSOMtKEfXHVlF47Jwi-111"><g><path d="M -0.5 30.88 L 17.61 -0.75 L 53.82 -0.75 L 72 30.88 L 53.82 62.5 L 17.61 62.5 Z M 17.53 45.4 C 17.71 47.72 19.49 49.62 21.84 49.98 L 49.8 49.98 C 52.09 49.56 53.81 47.68 53.97 45.4 L 53.97 19.36 L 46.37 11.77 L 22.28 11.77 C 19.81 11.93 17.81 13.8 17.53 16.21 Z M 20.24 17.35 C 20.06 16.04 20.95 14.82 22.28 14.56 L 45.13 14.56 L 45.13 20.71 L 51.26 20.71 L 51.26 44.83 C 51.19 46.15 50.07 47.19 48.71 47.19 L 22.28 47.19 C 21.15 46.96 20.31 46.03 20.24 44.9 Z M 28.41 21.36 L 30.68 20.14 L 30.68 27.23 L 28.49 27.23 L 28.49 28.87 L 34.84 28.87 L 34.84 27.15 L 32.87 27.15 L 32.87 18.07 L 30.97 18.07 L 28.41 19.86 Z M 40.09 17.85 C 38.5 18.03 37.12 19.04 36.52 20.5 C 35.9 22.56 35.92 24.75 36.59 26.8 C 37.41 28.26 38.71 29.14 40.09 29.16 C 41.4 29.05 42.61 28.19 43.38 26.8 C 44.05 24.78 44.11 22.62 43.53 20.57 C 42.97 19.13 41.65 18.09 40.09 17.85 Z M 39.95 19.71 C 40.65 19.69 41.27 20.41 41.41 21.43 C 41.63 22.85 41.63 24.3 41.41 25.72 C 41.25 26.71 40.64 27.4 39.95 27.37 C 39.26 27.4 38.65 26.71 38.49 25.72 C 38.27 24.3 38.27 22.85 38.49 21.43 C 38.63 20.41 39.24 19.69 39.95 19.71 Z M 31.62 32.45 C 29.99 32.56 28.55 33.55 27.9 35.02 C 27.23 37.12 27.23 39.37 27.9 41.46 C 28.75 43.04 30.15 43.96 31.62 43.9 C 32.92 43.75 34.1 42.86 34.84 41.46 C 35.51 39.37 35.51 37.12 34.84 35.02 C 34.28 33.69 33.07 32.72 31.62 32.45 Z M 31.48 34.45 C 31.87 34.45 32.24 34.68 32.51 35.08 C 32.79 35.48 32.94 36.03 32.94 36.6 C 33.08 37.74 33.08 38.89 32.94 40.03 C 32.91 41.19 32.27 42.11 31.48 42.11 C 31.09 42.14 30.7 41.93 30.42 41.54 C 30.13 41.15 29.96 40.61 29.95 40.03 C 29.8 38.89 29.8 37.74 29.95 36.6 C 29.95 36.01 30.11 35.45 30.4 35.04 C 30.69 34.64 31.08 34.42 31.48 34.45 Z M 37.03 34.45 L 37.03 36.17 L 39.22 34.95 L 39.22 41.97 L 36.95 41.97 L 36.95 43.61 L 43.38 43.61 L 43.38 41.97 L 41.41 41.97 L 41.41 32.74 L 39.66 32.81 Z" fill="#00bef2" stroke="none" pointer-events="all" style="fill: light-dark(rgb(0, 190, 242), rgb(0, 137, 182));"/></g></g><g data-cell-id="LGeSOMtKEfXHVlF47Jwi-112"/><g data-cell-id="LGeSOMtKEfXHVlF47Jwi-114"/><g data-cell-id="LGeSOMtKEfXHVlF47Jwi-115"/><g data-cell-id="LGeSOMtKEfXHVlF47Jwi-117"/><g data-cell-id="LGeSOMtKEfXHVlF47Jwi-118"/><g data-cell-id="LGeSOMtKEfXHVlF47Jwi-120"/><g data-cell-id="LGeSOMtKEfXHVlF47Jwi-119"/><g data-cell-id="LGeSOMtKEfXHVlF47Jwi-121"/><g data-cell-id="LGeSOMtKEfXHVlF47Jwi-122"/><g data-cell-id="LGeSOMtKEfXHVlF47Jwi-123"/><g data-cell-id="LGeSOMtKEfXHVlF47Jwi-124"/><g data-cell-id="LGeSOMtKEfXHVlF47Jwi-125"/><g data-cell-id="LGeSOMtKEfXHVlF47Jwi-126"/><g data-cell-id="LGeSOMtKEfXHVlF47Jwi-127"/><g data-cell-id="LGeSOMtKEfXHVlF47Jwi-128"/><g data-cell-id="LGeSOMtKEfXHVlF47Jwi-129"/><g data-cell-id="LGeSOMtKEfXHVlF47Jwi-131"/><g data-cell-id="LGeSOMtKEfXHVlF47Jwi-130"/><g data-cell-id="LGeSOMtKEfXHVlF47Jwi-133"/><g data-cell-id="LGeSOMtKEfXHVlF47Jwi-132"/><g data-cell-id="LGeSOMtKEfXHVlF47Jwi-135"/><g data-cell-id="LGeSOMtKEfXHVlF47Jwi-134"/><g data-cell-id="LGeSOMtKEfXHVlF47Jwi-137"/><g data-cell-id="LGeSOMtKEfXHVlF47Jwi-136"/><g data-cell-id="LGeSOMtKEfXHVlF47Jwi-139"/><g data-cell-id="LGeSOMtKEfXHVlF47Jwi-138"/><g data-cell-id="LGeSOMtKEfXHVlF47Jwi-140"/><g data-cell-id="LGeSOMtKEfXHVlF47Jwi-142"/><g data-cell-id="LGeSOMtKEfXHVlF47Jwi-141"/><g data-cell-id="LGeSOMtKEfXHVlF47Jwi-144"/><g data-cell-id="LGeSOMtKEfXHVlF47Jwi-143"/><g data-cell-id="uMv6w9dpbi2dMeReaodc-1"/><g data-cell-id="uMv6w9dpbi2dMeReaodc-2"/><g data-cell-id="NkiNe-T_F7YhjpwmjasX-1"/><g data-cell-id="ZUkbN0oGiNUrctvtTbKK-1"/><g data-cell-id="ZUkbN0oGiNUrctvtTbKK-2"/><g data-cell-id="4KQxyyJRGlhhSZIm372q-1"/><g data-cell-id="4KQxyyJRGlhhSZIm372q-2"/><g data-cell-id="4KQxyyJRGlhhSZIm372q-5"/><g data-cell-id="4KQxyyJRGlhhSZIm372q-6"/><g data-cell-id="4KQxyyJRGlhhSZIm372q-7"/><g data-cell-id="4KQxyyJRGlhhSZIm372q-8"/><g data-cell-id="4KQxyyJRGlhhSZIm372q-9"/><g data-cell-id="4KQxyyJRGlhhSZIm372q-10"/><g data-cell-id="4KQxyyJRGlhhSZIm372q-11"/><g data-cell-id="4KQxyyJRGlhhSZIm372q-12"/><g data-cell-id="rJugqx9VM5mnkuF0WH8f-1"/><g data-cell-id="4KQxyyJRGlhhSZIm372q-14"/><g data-cell-id="TI9_kuI_-UOrbEsiOwjt-1"/><g data-cell-id="iF2OgIirHEU1Pg3t5HG_-3"/><g data-cell-id="iF2OgIirHEU1Pg3t5HG_-4"/><g data-cell-id="nEBqXpaJT80181C7cPri-1"/><g data-cell-id="Q27HX4TccsR9B-cuksR4-1"/></g></g></g></svg>