<?xml version="1.0" encoding="UTF-8"?>
<!DOCTYPE svg PUBLIC "-//W3C//DTD SVG 1.1//EN" "http://www.w3.org/Graphics/SVG/1.1/DTD/svg11.dtd">
<svg xmlns="http://www.w3.org/2000/svg" style="background: transparent; background-color: transparent; color-scheme: light dark;" xmlns:xlink="http://www.w3.org/1999/xlink" version="1.1" width="76px" height="76px" viewBox="-0.5 -0.5 76 76"><defs/><g><g data-cell-id="0"><g data-cell-id="1"><g data-cell-id="uOOALo2DKPWJv4Zl2InU-62"/><g data-cell-id="uOOALo2DKPWJv4Zl2InU-14"/><g data-cell-id="uOOALo2DKPWJv4Zl2InU-23"/><g data-cell-id="uOOALo2DKPWJv4Zl2InU-42"/><g data-cell-id="uOOALo2DKPWJv4Zl2InU-61"/><g data-cell-id="uOOALo2DKPWJv4Zl2InU-63"/><g data-cell-id="uOOALo2DKPWJv4Zl2InU-64"/><g data-cell-id="efvbdfl2VHT3VojU4tKS-1"/><g data-cell-id="tNyDVrq7xn07N7F-I11H-1"/><g data-cell-id="tNyDVrq7xn07N7F-I11H-8"><g data-cell-id="G6x7UwTbpkL1cR1ESIkw-4"/></g><g data-cell-id="tNyDVrq7xn07N7F-I11H-6"/><g data-cell-id="tNyDVrq7xn07N7F-I11H-7"/><g data-cell-id="tNyDVrq7xn07N7F-I11H-13"><g data-cell-id="G6x7UwTbpkL1cR1ESIkw-7"/></g><g data-cell-id="tNyDVrq7xn07N7F-I11H-14"/><g data-cell-id="tNyDVrq7xn07N7F-I11H-12"/><g data-cell-id="G6x7UwTbpkL1cR1ESIkw-3"/><g data-cell-id="SIbyNZ5PKx7ztqdL2jGS-2"/><g data-cell-id="tNyDVrq7xn07N7F-I11H-15"/><g data-cell-id="G6x7UwTbpkL1cR1ESIkw-1"/><g data-cell-id="G6x7UwTbpkL1cR1ESIkw-10"><g data-cell-id="G6x7UwTbpkL1cR1ESIkw-12"/></g><g data-cell-id="G6x7UwTbpkL1cR1ESIkw-18"><g data-cell-id="DSkeY8nCQNupa7w5vkUk-3"/><g data-cell-id="DSkeY8nCQNupa7w5vkUk-4"/></g><g data-cell-id="G6x7UwTbpkL1cR1ESIkw-15"/><g data-cell-id="G6x7UwTbpkL1cR1ESIkw-16"/><g data-cell-id="G6x7UwTbpkL1cR1ESIkw-19"><g data-cell-id="DSkeY8nCQNupa7w5vkUk-5"/></g><g data-cell-id="DSkeY8nCQNupa7w5vkUk-1"/><g data-cell-id="DSkeY8nCQNupa7w5vkUk-2"/><g data-cell-id="DSkeY8nCQNupa7w5vkUk-6"/><g data-cell-id="DSkeY8nCQNupa7w5vkUk-7"/><g data-cell-id="DSkeY8nCQNupa7w5vkUk-8"/><g data-cell-id="DSkeY8nCQNupa7w5vkUk-9"/><g data-cell-id="DSkeY8nCQNupa7w5vkUk-12"/><g data-cell-id="DSkeY8nCQNupa7w5vkUk-13"/><g data-cell-id="DSkeY8nCQNupa7w5vkUk-14"/><g data-cell-id="DSkeY8nCQNupa7w5vkUk-15"/><g data-cell-id="DSkeY8nCQNupa7w5vkUk-16"/><g data-cell-id="SIbyNZ5PKx7ztqdL2jGS-1"/><g data-cell-id="khw4yTepWJyOCelIr60O-1"/><g data-cell-id="sseqbpUNzScJq1bjxb9B-1"/><g data-cell-id="sseqbpUNzScJq1bjxb9B-2"/><g data-cell-id="sseqbpUNzScJq1bjxb9B-3"/><g data-cell-id="mfBjy6P-X11OHKRqBv8D-1"/><g data-cell-id="mfBjy6P-X11OHKRqBv8D-2"/><g data-cell-id="QhB5g_8hklcGdM7FIu2A-2"/><g data-cell-id="QhB5g_8hklcGdM7FIu2A-1"/><g data-cell-id="xJlOHiyQF1a7nc-b1wtQ-2"/><g data-cell-id="D5QDWhqFUs2y9TANpYPk-1"/><g data-cell-id="xJlOHiyQF1a7nc-b1wtQ-3"/><g data-cell-id="xJlOHiyQF1a7nc-b1wtQ-1"/><g data-cell-id="1ei0CR4h0aUsHhk5xFHv-1"/><g data-cell-id="T1sXBhAIhCtQfk_1aMCt-5"/><g data-cell-id="1ei0CR4h0aUsHhk5xFHv-3"><g><path d="M 37.59 75.28 C 15.47 75.28 0 57.25 0 38.07 C 0 15.13 18.47 0.28 37.87 0.28 C 56.56 0.28 75 15.61 75 37.77 C 75 57.62 59.21 75.28 37.59 75.28 Z" fill="#0d2636" stroke="none" pointer-events="all" style="fill: light-dark(rgb(13, 38, 54), rgb(189, 211, 224));"/><path d="M 29.48 67.07 C 29.48 68.69 28.25 69.36 26.41 68.73 C 15.31 64.84 4.64 52.83 4.64 37.83 C 4.64 17.54 22 4.75 37.04 4.75 C 56.56 4.75 70.45 20.75 70.45 37.63 C 70.45 51.57 61.48 64.4 48.04 68.9 C 46.52 69.3 45.58 68.49 45.58 67.16 L 45.58 57.39 C 45.58 55.5 44.81 53.49 43.39 52.09 C 48.85 51.47 52.16 50.1 54.69 47.49 C 57.18 45.02 58.3 41.39 58.51 36.91 C 58.64 33.35 57.7 29.88 55.12 27.23 C 56.01 25.05 56.17 22.15 54.81 18.57 C 52.11 18.36 49.03 19.98 45.88 21.93 C 40.34 20.49 34.8 20.3 29.27 22.01 C 26.79 20.4 24.54 18.59 20.25 18.57 C 19.12 21.73 18.94 24.62 19.91 27.18 C 16.85 30.58 16.5 33.92 16.55 37.25 C 16.89 43.67 19.24 46.92 21.85 48.86 C 24.02 50.47 27.06 51.48 31.69 52.16 C 30.45 53.39 29.75 54.86 29.63 56.57 C 26.91 57.82 23.01 58.44 20.34 54.66 C 19.15 52.76 17.53 50.62 14.44 50.63 C 13.94 50.61 13.44 50.81 13.36 51.03 C 13.3 51.27 13.58 51.77 13.92 51.97 C 16.62 53.68 17.06 54.65 18.16 57 C 19.19 59.74 20.96 60.8 22.88 61.54 C 24.84 62.23 28.02 62.04 29.48 61.54 Z" fill="#ffffff" stroke="none" pointer-events="all" style="fill: light-dark(rgb(255, 255, 255), rgb(18, 18, 18));"/></g></g><g data-cell-id="T1sXBhAIhCtQfk_1aMCt-7"/><g data-cell-id="T1sXBhAIhCtQfk_1aMCt-2"/><g data-cell-id="T1sXBhAIhCtQfk_1aMCt-9"/><g data-cell-id="T1sXBhAIhCtQfk_1aMCt-6"/><g data-cell-id="T1sXBhAIhCtQfk_1aMCt-8"/><g data-cell-id="T1sXBhAIhCtQfk_1aMCt-11"/><g data-cell-id="G_nE93u9n-B-lsNTsYu3-1"/><g data-cell-id="G_nE93u9n-B-lsNTsYu3-2"/><g data-cell-id="zhKt3fNSLgRZPjDAheu--1"/><g data-cell-id="UvL_e13xT3raBQWUSXP_-1"/><g data-cell-id="GsSff52rk4mW3boRFP0h-4"/><g data-cell-id="GsSff52rk4mW3boRFP0h-7"/><g data-cell-id="GsSff52rk4mW3boRFP0h-8"/><g data-cell-id="GsSff52rk4mW3boRFP0h-9"/><g data-cell-id="ZdjWKGI6bNVlR5FEHZFW-1"/><g data-cell-id="ZdjWKGI6bNVlR5FEHZFW-2"/><g data-cell-id="ZdjWKGI6bNVlR5FEHZFW-3"/><g data-cell-id="ZdjWKGI6bNVlR5FEHZFW-4"/><g data-cell-id="ZdjWKGI6bNVlR5FEHZFW-7"/><g data-cell-id="ZdjWKGI6bNVlR5FEHZFW-8"/><g data-cell-id="ZdjWKGI6bNVlR5FEHZFW-9"/><g data-cell-id="ZdjWKGI6bNVlR5FEHZFW-10"/><g data-cell-id="bX_caWo315ZGvje-jDk6-1"/></g></g></g></svg>