<?xml version="1.0" encoding="UTF-8"?>
<!-- Do not edit this file with editors other than draw.io -->
<!DOCTYPE svg PUBLIC "-//W3C//DTD SVG 1.1//EN" "http://www.w3.org/Graphics/SVG/1.1/DTD/svg11.dtd">
<svg xmlns="http://www.w3.org/2000/svg" style="background: transparent; background-color: transparent; color-scheme: light dark;" xmlns:xlink="http://www.w3.org/1999/xlink" version="1.1" width="51px" height="46px" viewBox="-0.5 -0.5 51 46" content="&lt;mxfile host=&quot;app.diagrams.net&quot; agent=&quot;Mozilla/5.0 (Windows NT 10.0; Win64; x64) AppleWebKit/537.36 (KHTML, like Gecko) Chrome/139.0.0.0 Safari/537.36 Edg/139.0.0.0&quot; version=&quot;28.1.0&quot; scale=&quot;1&quot; border=&quot;0&quot;&gt;&#10;  &lt;diagram name=&quot;Página-1&quot; id=&quot;n17qnVkptYTiBwA9VrZy&quot;&gt;&#10;    &lt;mxGraphModel dx=&quot;120&quot; dy=&quot;718&quot; grid=&quot;1&quot; gridSize=&quot;10&quot; guides=&quot;1&quot; tooltips=&quot;1&quot; connect=&quot;1&quot; arrows=&quot;1&quot; fold=&quot;1&quot; page=&quot;1&quot; pageScale=&quot;1&quot; pageWidth=&quot;1169&quot; pageHeight=&quot;827&quot; math=&quot;0&quot; shadow=&quot;0&quot;&gt;&#10;      &lt;root&gt;&#10;        &lt;mxCell id=&quot;0&quot; /&gt;&#10;        &lt;mxCell id=&quot;1&quot; parent=&quot;0&quot; /&gt;&#10;        &lt;mxCell id=&quot;2&quot; value=&quot;&quot; style=&quot;verticalLabelPosition=bottom;html=1;verticalAlign=top;align=center;strokeColor=none;fillColor=#00BEF2;shape=mxgraph.azure.storage_blob;&quot; vertex=&quot;1&quot; parent=&quot;1&quot;&gt;&#10;          &lt;mxGeometry x=&quot;3713.5&quot; y=&quot;470&quot; width=&quot;50&quot; height=&quot;45&quot; as=&quot;geometry&quot; /&gt;&#10;        &lt;/mxCell&gt;&#10;      &lt;/root&gt;&#10;    &lt;/mxGraphModel&gt;&#10;  &lt;/diagram&gt;&#10;&lt;/mxfile&gt;&#10;"><defs/><g><g data-cell-id="0"><g data-cell-id="1"><g data-cell-id="uOOALo2DKPWJv4Zl2InU-62"/><g data-cell-id="uOOALo2DKPWJv4Zl2InU-14"/><g data-cell-id="uOOALo2DKPWJv4Zl2InU-42"/><g data-cell-id="uOOALo2DKPWJv4Zl2InU-61"/><g data-cell-id="uOOALo2DKPWJv4Zl2InU-63"/><g data-cell-id="uOOALo2DKPWJv4Zl2InU-64"/><g data-cell-id="efvbdfl2VHT3VojU4tKS-1"/><g data-cell-id="tNyDVrq7xn07N7F-I11H-1"/><g data-cell-id="tNyDVrq7xn07N7F-I11H-8"><g data-cell-id="G6x7UwTbpkL1cR1ESIkw-4"/></g><g data-cell-id="tNyDVrq7xn07N7F-I11H-6"/><g data-cell-id="SIbyNZ5PKx7ztqdL2jGS-2"/><g data-cell-id="XJ7bKyOL_0hXQwAjq0tB-6"/><g data-cell-id="tNyDVrq7xn07N7F-I11H-15"/><g data-cell-id="DSkeY8nCQNupa7w5vkUk-1"><g><path d="M -0.5 22.5 L 11.99 0 L 36.96 0 L 49.5 22.5 L 36.96 45 L 11.99 45 Z M 11.94 32.83 C 12.06 34.49 13.29 35.84 14.91 36.09 L 34.19 36.09 C 35.77 35.79 36.95 34.45 37.06 32.83 L 37.06 14.3 L 31.83 8.91 L 15.21 8.91 C 13.51 9.02 12.13 10.35 11.94 12.06 Z M 13.8 12.88 C 13.68 11.94 14.29 11.07 15.21 10.89 L 30.97 10.89 L 30.97 15.27 L 35.2 15.27 L 35.2 32.43 C 35.15 33.37 34.37 34.11 33.44 34.11 L 15.21 34.11 C 14.43 33.95 13.85 33.28 13.8 32.48 Z M 19.44 15.73 L 21 14.86 L 21 19.9 L 19.49 19.9 L 19.49 21.07 L 23.87 21.07 L 23.87 19.85 L 22.51 19.85 L 22.51 13.39 L 21.2 13.39 L 19.44 14.66 Z M 27.5 13.24 C 26.39 13.36 25.45 14.08 25.03 15.12 C 24.6 16.58 24.62 18.14 25.08 19.6 C 25.64 20.64 26.54 21.27 27.5 21.28 C 28.4 21.2 29.23 20.59 29.76 19.6 C 30.23 18.16 30.26 16.62 29.86 15.17 C 29.48 14.14 28.57 13.4 27.5 13.24 Z M 27.4 14.56 C 27.88 14.54 28.31 15.06 28.4 15.78 C 28.55 16.79 28.55 17.82 28.4 18.83 C 28.29 19.54 27.87 20.03 27.4 20.01 C 26.92 20.03 26.5 19.54 26.39 18.83 C 26.24 17.82 26.24 16.79 26.39 15.78 C 26.49 15.06 26.91 14.54 27.4 14.56 Z M 21.66 23.62 C 20.53 23.7 19.54 24.4 19.09 25.45 C 18.62 26.94 18.62 28.54 19.09 30.03 C 19.67 31.16 20.64 31.81 21.66 31.76 C 22.55 31.66 23.36 31.03 23.87 30.03 C 24.33 28.54 24.33 26.94 23.87 25.45 C 23.48 24.5 22.65 23.82 21.66 23.62 Z M 21.55 25.05 C 21.82 25.05 22.08 25.21 22.27 25.49 C 22.46 25.78 22.56 26.17 22.56 26.57 C 22.66 27.38 22.66 28.2 22.56 29.02 C 22.54 29.84 22.1 30.49 21.55 30.49 C 21.28 30.51 21.02 30.37 20.82 30.09 C 20.62 29.81 20.51 29.43 20.5 29.02 C 20.4 28.2 20.4 27.38 20.5 26.57 C 20.5 26.15 20.61 25.75 20.81 25.46 C 21.01 25.18 21.28 25.02 21.55 25.05 Z M 25.38 25.05 L 25.38 26.27 L 26.89 25.4 L 26.89 30.39 L 25.33 30.39 L 25.33 31.56 L 29.76 31.56 L 29.76 30.39 L 28.4 30.39 L 28.4 23.82 L 27.19 23.87 Z" fill="#00bef2" stroke="none" pointer-events="all" style="fill: light-dark(rgb(0, 190, 242), rgb(0, 137, 182));"/></g></g><g data-cell-id="DSkeY8nCQNupa7w5vkUk-6"/><g data-cell-id="DSkeY8nCQNupa7w5vkUk-7"/><g data-cell-id="DSkeY8nCQNupa7w5vkUk-8"/><g data-cell-id="DSkeY8nCQNupa7w5vkUk-9"/><g data-cell-id="DSkeY8nCQNupa7w5vkUk-12"/><g data-cell-id="DSkeY8nCQNupa7w5vkUk-14"/><g data-cell-id="DSkeY8nCQNupa7w5vkUk-15"/><g data-cell-id="DSkeY8nCQNupa7w5vkUk-16"/><g data-cell-id="SIbyNZ5PKx7ztqdL2jGS-1"/><g data-cell-id="sseqbpUNzScJq1bjxb9B-1"/><g data-cell-id="sseqbpUNzScJq1bjxb9B-3"/><g data-cell-id="mfBjy6P-X11OHKRqBv8D-1"/><g data-cell-id="WDzIs54vf-4zkKUbdtyc-9"/><g data-cell-id="mfBjy6P-X11OHKRqBv8D-2"/><g data-cell-id="QhB5g_8hklcGdM7FIu2A-2"/><g data-cell-id="QhB5g_8hklcGdM7FIu2A-1"/><g data-cell-id="xJlOHiyQF1a7nc-b1wtQ-2"/><g data-cell-id="D5QDWhqFUs2y9TANpYPk-1"/><g data-cell-id="xJlOHiyQF1a7nc-b1wtQ-3"/><g data-cell-id="xJlOHiyQF1a7nc-b1wtQ-1"/><g data-cell-id="WDzIs54vf-4zkKUbdtyc-29"/><g data-cell-id="1ei0CR4h0aUsHhk5xFHv-1"/><g data-cell-id="T1sXBhAIhCtQfk_1aMCt-10"/><g data-cell-id="G_nE93u9n-B-lsNTsYu3-1"/><g data-cell-id="G_nE93u9n-B-lsNTsYu3-2"/><g data-cell-id="zhKt3fNSLgRZPjDAheu--1"/><g data-cell-id="UvL_e13xT3raBQWUSXP_-1"/><g data-cell-id="GsSff52rk4mW3boRFP0h-7"/><g data-cell-id="GsSff52rk4mW3boRFP0h-9"/><g data-cell-id="ZdjWKGI6bNVlR5FEHZFW-1"/><g data-cell-id="ZdjWKGI6bNVlR5FEHZFW-2"/><g data-cell-id="ZdjWKGI6bNVlR5FEHZFW-3"/><g data-cell-id="ZdjWKGI6bNVlR5FEHZFW-7"/><g data-cell-id="bX_caWo315ZGvje-jDk6-1"/><g data-cell-id="XJ7bKyOL_0hXQwAjq0tB-7"/><g data-cell-id="WDzIs54vf-4zkKUbdtyc-6"/><g data-cell-id="tSBzmsZS9faw9SCKfMOF-1"/><g data-cell-id="AxDd3FGQB_12wOL41BuV-1"/><g data-cell-id="AxDd3FGQB_12wOL41BuV-2"/><g data-cell-id="XJ7bKyOL_0hXQwAjq0tB-4"/><g data-cell-id="wyHNNTWQkt2Xfi48w_K_-1"/><g data-cell-id="wyHNNTWQkt2Xfi48w_K_-4"/><g data-cell-id="wyHNNTWQkt2Xfi48w_K_-5"/><g data-cell-id="aPuh5aDubNt3AiDNyjex-2"/><g data-cell-id="wyHNNTWQkt2Xfi48w_K_-8"/><g data-cell-id="wyHNNTWQkt2Xfi48w_K_-9"/><g data-cell-id="wyHNNTWQkt2Xfi48w_K_-11"/><g data-cell-id="wyHNNTWQkt2Xfi48w_K_-12"/><g data-cell-id="wyHNNTWQkt2Xfi48w_K_-13"/><g data-cell-id="wyHNNTWQkt2Xfi48w_K_-16"/><g data-cell-id="wyHNNTWQkt2Xfi48w_K_-17"/><g data-cell-id="wyHNNTWQkt2Xfi48w_K_-19"/><g data-cell-id="Y_fi08IE4hqae7w_Tzpa-1"><g data-cell-id="Y_fi08IE4hqae7w_Tzpa-2"/><g data-cell-id="Y_fi08IE4hqae7w_Tzpa-3"/><g data-cell-id="Y_fi08IE4hqae7w_Tzpa-4"/></g><g data-cell-id="Y_fi08IE4hqae7w_Tzpa-5"><g data-cell-id="Y_fi08IE4hqae7w_Tzpa-6"/><g data-cell-id="Y_fi08IE4hqae7w_Tzpa-7"/><g data-cell-id="Y_fi08IE4hqae7w_Tzpa-8"/></g><g data-cell-id="Y_fi08IE4hqae7w_Tzpa-9"><g data-cell-id="Y_fi08IE4hqae7w_Tzpa-10"/><g data-cell-id="Y_fi08IE4hqae7w_Tzpa-11"/><g data-cell-id="Y_fi08IE4hqae7w_Tzpa-12"/></g><g data-cell-id="Y_fi08IE4hqae7w_Tzpa-13"><g data-cell-id="Y_fi08IE4hqae7w_Tzpa-14"/><g data-cell-id="Y_fi08IE4hqae7w_Tzpa-15"/><g data-cell-id="Y_fi08IE4hqae7w_Tzpa-16"/></g><g data-cell-id="Y_fi08IE4hqae7w_Tzpa-17"/><g data-cell-id="Y_fi08IE4hqae7w_Tzpa-18"/><g data-cell-id="Y_fi08IE4hqae7w_Tzpa-19"><g data-cell-id="Y_fi08IE4hqae7w_Tzpa-20"/><g data-cell-id="Y_fi08IE4hqae7w_Tzpa-21"/><g data-cell-id="Y_fi08IE4hqae7w_Tzpa-22"/></g><g data-cell-id="Y_fi08IE4hqae7w_Tzpa-23"/><g data-cell-id="Y_fi08IE4hqae7w_Tzpa-24"><g data-cell-id="Y_fi08IE4hqae7w_Tzpa-25"/><g data-cell-id="Y_fi08IE4hqae7w_Tzpa-26"/><g data-cell-id="Y_fi08IE4hqae7w_Tzpa-27"/></g><g data-cell-id="Y_fi08IE4hqae7w_Tzpa-28"/><g data-cell-id="Y_fi08IE4hqae7w_Tzpa-29"><g data-cell-id="Y_fi08IE4hqae7w_Tzpa-30"/><g data-cell-id="Y_fi08IE4hqae7w_Tzpa-31"/><g data-cell-id="Y_fi08IE4hqae7w_Tzpa-32"/></g><g data-cell-id="Y_fi08IE4hqae7w_Tzpa-33"/><g data-cell-id="Y_fi08IE4hqae7w_Tzpa-34"/><g data-cell-id="Y_fi08IE4hqae7w_Tzpa-35"/><g data-cell-id="Y_fi08IE4hqae7w_Tzpa-36"/><g data-cell-id="Y_fi08IE4hqae7w_Tzpa-37"/><g data-cell-id="Y_fi08IE4hqae7w_Tzpa-38"><g data-cell-id="Y_fi08IE4hqae7w_Tzpa-39"/><g data-cell-id="Y_fi08IE4hqae7w_Tzpa-40"/><g data-cell-id="Y_fi08IE4hqae7w_Tzpa-41"/><g data-cell-id="Y_fi08IE4hqae7w_Tzpa-42"/><g data-cell-id="Y_fi08IE4hqae7w_Tzpa-43"/><g data-cell-id="Y_fi08IE4hqae7w_Tzpa-44"/></g><g data-cell-id="Y_fi08IE4hqae7w_Tzpa-45"/><g data-cell-id="Y_fi08IE4hqae7w_Tzpa-46"/><g data-cell-id="Y_fi08IE4hqae7w_Tzpa-47"/><g data-cell-id="Y_fi08IE4hqae7w_Tzpa-48"/><g data-cell-id="Y_fi08IE4hqae7w_Tzpa-49"/><g data-cell-id="Y_fi08IE4hqae7w_Tzpa-50"/><g data-cell-id="5oGYHbYtzKlPw1tetjBF-1"/><g data-cell-id="XJ7bKyOL_0hXQwAjq0tB-2"/><g data-cell-id="aPuh5aDubNt3AiDNyjex-1"/><g data-cell-id="XJ7bKyOL_0hXQwAjq0tB-1"/><g data-cell-id="XJ7bKyOL_0hXQwAjq0tB-3"/><g data-cell-id="6HoM5Qsu5IT763Con4xt-4"/><g data-cell-id="6HoM5Qsu5IT763Con4xt-6"/><g data-cell-id="WDzIs54vf-4zkKUbdtyc-1"/><g data-cell-id="WDzIs54vf-4zkKUbdtyc-4"/><g data-cell-id="WDzIs54vf-4zkKUbdtyc-5"/><g data-cell-id="WDzIs54vf-4zkKUbdtyc-10"/><g data-cell-id="WDzIs54vf-4zkKUbdtyc-7"/><g data-cell-id="WDzIs54vf-4zkKUbdtyc-11"/><g data-cell-id="WDzIs54vf-4zkKUbdtyc-12"/><g data-cell-id="WDzIs54vf-4zkKUbdtyc-13"/><g data-cell-id="WDzIs54vf-4zkKUbdtyc-14"/><g data-cell-id="WDzIs54vf-4zkKUbdtyc-15"/><g data-cell-id="WDzIs54vf-4zkKUbdtyc-16"/><g data-cell-id="WDzIs54vf-4zkKUbdtyc-17"/><g data-cell-id="WDzIs54vf-4zkKUbdtyc-18"/><g data-cell-id="WDzIs54vf-4zkKUbdtyc-19"/><g data-cell-id="WDzIs54vf-4zkKUbdtyc-20"/><g data-cell-id="WDzIs54vf-4zkKUbdtyc-21"/><g data-cell-id="WDzIs54vf-4zkKUbdtyc-22"/><g data-cell-id="WDzIs54vf-4zkKUbdtyc-23"/><g data-cell-id="WDzIs54vf-4zkKUbdtyc-24"/><g data-cell-id="WDzIs54vf-4zkKUbdtyc-25"/><g data-cell-id="WDzIs54vf-4zkKUbdtyc-30"/><g data-cell-id="WDzIs54vf-4zkKUbdtyc-26"/><g data-cell-id="WDzIs54vf-4zkKUbdtyc-27"/><g data-cell-id="WDzIs54vf-4zkKUbdtyc-28"/><g data-cell-id="WDzIs54vf-4zkKUbdtyc-31"/><g data-cell-id="WDzIs54vf-4zkKUbdtyc-32"/><g data-cell-id="WDzIs54vf-4zkKUbdtyc-33"/><g data-cell-id="WDzIs54vf-4zkKUbdtyc-34"/><g data-cell-id="WDzIs54vf-4zkKUbdtyc-35"/><g data-cell-id="WDzIs54vf-4zkKUbdtyc-36"/><g data-cell-id="WDzIs54vf-4zkKUbdtyc-37"/></g></g></g></svg>