<?xml version="1.0" encoding="UTF-8"?>
<!-- Do not edit this file with editors other than draw.io -->
<!DOCTYPE svg PUBLIC "-//W3C//DTD SVG 1.1//EN" "http://www.w3.org/Graphics/SVG/1.1/DTD/svg11.dtd">
<svg xmlns="http://www.w3.org/2000/svg" style="background: transparent; background-color: transparent; color-scheme: light dark;" xmlns:xlink="http://www.w3.org/1999/xlink" version="1.1" width="79px" height="79px" viewBox="-0.5 -0.5 79 79" content="&lt;mxfile host=&quot;app.diagrams.net&quot; agent=&quot;Mozilla/5.0 (Windows NT 10.0; Win64; x64) AppleWebKit/537.36 (KHTML, like Gecko) Chrome/139.0.0.0 Safari/537.36 Edg/139.0.0.0&quot; version=&quot;28.1.0&quot; scale=&quot;1&quot; border=&quot;0&quot;&gt;&#10;  &lt;diagram name=&quot;Página-1&quot; id=&quot;jsZBAeSR-riHtfkisl-K&quot;&gt;&#10;    &lt;mxGraphModel dx=&quot;120&quot; dy=&quot;718&quot; grid=&quot;1&quot; gridSize=&quot;10&quot; guides=&quot;1&quot; tooltips=&quot;1&quot; connect=&quot;1&quot; arrows=&quot;1&quot; fold=&quot;1&quot; page=&quot;1&quot; pageScale=&quot;1&quot; pageWidth=&quot;1169&quot; pageHeight=&quot;827&quot; math=&quot;0&quot; shadow=&quot;0&quot;&gt;&#10;      &lt;root&gt;&#10;        &lt;mxCell id=&quot;0&quot; /&gt;&#10;        &lt;mxCell id=&quot;1&quot; parent=&quot;0&quot; /&gt;&#10;        &lt;mxCell id=&quot;2&quot; value=&quot;&quot; style=&quot;sketch=0;outlineConnect=0;fontColor=#232F3E;gradientColor=none;fillColor=#8C4FFF;strokeColor=none;dashed=0;verticalLabelPosition=bottom;verticalAlign=top;align=center;html=1;fontSize=12;fontStyle=0;aspect=fixed;pointerEvents=1;shape=mxgraph.aws4.datazone_data_projects;&quot; vertex=&quot;1&quot; parent=&quot;1&quot;&gt;&#10;          &lt;mxGeometry x=&quot;3265&quot; y=&quot;903.06&quot; width=&quot;78&quot; height=&quot;78&quot; as=&quot;geometry&quot; /&gt;&#10;        &lt;/mxCell&gt;&#10;      &lt;/root&gt;&#10;    &lt;/mxGraphModel&gt;&#10;  &lt;/diagram&gt;&#10;&lt;/mxfile&gt;&#10;"><defs/><g><g data-cell-id="0"><g data-cell-id="1"><g data-cell-id="uOOALo2DKPWJv4Zl2InU-62"/><g data-cell-id="uOOALo2DKPWJv4Zl2InU-14"/><g data-cell-id="uOOALo2DKPWJv4Zl2InU-42"/><g data-cell-id="uOOALo2DKPWJv4Zl2InU-61"/><g data-cell-id="uOOALo2DKPWJv4Zl2InU-63"/><g data-cell-id="uOOALo2DKPWJv4Zl2InU-64"/><g data-cell-id="efvbdfl2VHT3VojU4tKS-1"/><g data-cell-id="tNyDVrq7xn07N7F-I11H-1"/><g data-cell-id="tNyDVrq7xn07N7F-I11H-8"><g data-cell-id="G6x7UwTbpkL1cR1ESIkw-4"/></g><g data-cell-id="tNyDVrq7xn07N7F-I11H-6"><g><rect x="0" y="-0.94" width="78" height="78" fill="none" stroke="none" pointer-events="all"/><path d="M 33.68 23.88 L 58.5 23.88 L 58.5 20.33 L 33.68 20.33 Z M 33.68 15.01 L 51.41 15.01 L 51.41 11.47 L 33.68 11.47 Z M 63.82 45.15 L 63.82 57.56 L 58.5 57.56 L 58.5 32.74 L 54.95 32.74 L 54.95 57.56 L 49.64 57.56 L 49.64 38.06 L 46.09 38.06 L 46.09 57.56 L 42.55 57.56 L 42.55 61.11 L 70.91 61.11 L 70.91 57.56 L 67.36 57.56 L 67.36 45.15 Z M 31.31 54.07 C 30.1 53.32 28.73 52.93 27.32 52.93 C 23.59 52.93 20.46 55.68 19.68 59.33 L 34.96 59.33 C 34.49 57.16 33.18 55.23 31.31 54.07 Z M 23.64 45.49 C 23.64 47.52 25.29 49.17 27.32 49.17 C 29.35 49.17 31.01 47.52 31.01 45.49 C 31.01 43.45 29.36 41.8 27.32 41.8 C 25.29 41.8 23.64 43.45 23.64 45.49 Z M 34.55 45.49 C 34.55 47.5 33.72 49.33 32.39 50.64 L 33.17 51.05 C 36.58 53.16 38.69 57.01 38.69 61.11 C 38.69 61.58 38.5 62.03 38.17 62.36 C 37.84 62.69 37.39 62.88 36.92 62.88 L 17.73 62.88 C 16.75 62.88 15.95 62.08 15.95 61.11 C 15.95 56.52 18.53 52.56 22.25 50.63 C 20.87 49.28 20.09 47.42 20.09 45.49 C 20.09 41.5 23.34 38.26 27.32 38.26 C 31.31 38.26 34.55 41.5 34.55 45.49 Z M 7.68 37.58 C 7.68 39.62 9.34 41.27 11.37 41.27 C 13.4 41.27 15.05 39.62 15.05 37.58 C 15.05 35.55 13.4 33.9 11.37 33.9 C 9.34 33.9 7.68 35.55 7.68 37.58 Z M 14.18 55.79 L 1.77 55.79 C 1.3 55.79 0.85 55.6 0.52 55.27 C 0.19 54.94 0 54.48 0 54.01 C 0 49.18 2.85 45.03 6.91 43.23 C 5.23 41.91 4.14 39.88 4.14 37.58 C 4.14 33.6 7.38 30.35 11.37 30.35 C 15.36 30.35 18.6 33.6 18.6 37.58 C 18.6 39.88 17.5 41.91 15.83 43.23 C 16.31 43.44 16.77 43.69 17.22 43.96 L 15.35 46.98 C 14.15 46.23 12.77 45.84 11.37 45.84 C 7.64 45.84 4.51 48.58 3.73 52.24 L 14.18 52.24 Z M 63.82 13.24 L 71.95 13.24 L 63.82 5.11 Z M 78 15.01 L 78 66.42 C 78 68.41 76.44 69.97 74.45 69.97 L 28.36 69.97 L 28.36 66.42 L 74.45 66.42 L 74.45 16.79 L 62.05 16.79 C 61.07 16.79 60.27 15.99 60.27 15.01 L 60.27 2.61 L 28.43 2.61 L 28.36 34.51 L 24.82 34.51 L 24.82 2.61 C 24.82 0.65 26.44 -0.94 28.43 -0.94 L 62.05 -0.94 C 62.52 -0.94 62.97 -0.75 63.3 -0.42 L 77.48 13.76 C 77.81 14.09 78 14.54 78 15.01 Z M 17.73 66.42 L 14.18 66.42 L 14.18 73.51 C 14.18 75.47 15.8 77.06 17.79 77.06 L 63.75 77.06 L 63.75 73.51 L 17.73 73.51 Z M 17.73 27.42 L 14.18 27.42 L 14.18 7.92 C 14.18 5.97 15.8 4.38 17.79 4.38 L 21.27 4.38 L 21.27 7.92 L 17.79 7.92 Z" fill="#8c4fff" stroke="none" pointer-events="all" style="fill: light-dark(rgb(140, 79, 255), rgb(177, 125, 255));"/></g></g><g data-cell-id="SIbyNZ5PKx7ztqdL2jGS-2"/><g data-cell-id="XJ7bKyOL_0hXQwAjq0tB-6"/><g data-cell-id="tNyDVrq7xn07N7F-I11H-15"/><g data-cell-id="DSkeY8nCQNupa7w5vkUk-1"/><g data-cell-id="DSkeY8nCQNupa7w5vkUk-6"/><g data-cell-id="DSkeY8nCQNupa7w5vkUk-7"/><g data-cell-id="DSkeY8nCQNupa7w5vkUk-8"/><g data-cell-id="DSkeY8nCQNupa7w5vkUk-9"/><g data-cell-id="DSkeY8nCQNupa7w5vkUk-12"/><g data-cell-id="DSkeY8nCQNupa7w5vkUk-14"/><g data-cell-id="DSkeY8nCQNupa7w5vkUk-15"/><g data-cell-id="DSkeY8nCQNupa7w5vkUk-16"/><g data-cell-id="SIbyNZ5PKx7ztqdL2jGS-1"/><g data-cell-id="sseqbpUNzScJq1bjxb9B-1"/><g data-cell-id="sseqbpUNzScJq1bjxb9B-3"/><g data-cell-id="mfBjy6P-X11OHKRqBv8D-1"/><g data-cell-id="WDzIs54vf-4zkKUbdtyc-9"/><g data-cell-id="mfBjy6P-X11OHKRqBv8D-2"/><g data-cell-id="QhB5g_8hklcGdM7FIu2A-2"/><g data-cell-id="QhB5g_8hklcGdM7FIu2A-1"/><g data-cell-id="xJlOHiyQF1a7nc-b1wtQ-2"/><g data-cell-id="D5QDWhqFUs2y9TANpYPk-1"/><g data-cell-id="xJlOHiyQF1a7nc-b1wtQ-3"/><g data-cell-id="xJlOHiyQF1a7nc-b1wtQ-1"/><g data-cell-id="WDzIs54vf-4zkKUbdtyc-29"/><g data-cell-id="1ei0CR4h0aUsHhk5xFHv-1"/><g data-cell-id="T1sXBhAIhCtQfk_1aMCt-10"/><g data-cell-id="G_nE93u9n-B-lsNTsYu3-1"/><g data-cell-id="G_nE93u9n-B-lsNTsYu3-2"/><g data-cell-id="zhKt3fNSLgRZPjDAheu--1"/><g data-cell-id="UvL_e13xT3raBQWUSXP_-1"/><g data-cell-id="GsSff52rk4mW3boRFP0h-7"/><g data-cell-id="GsSff52rk4mW3boRFP0h-9"/><g data-cell-id="ZdjWKGI6bNVlR5FEHZFW-1"/><g data-cell-id="ZdjWKGI6bNVlR5FEHZFW-2"/><g data-cell-id="ZdjWKGI6bNVlR5FEHZFW-3"/><g data-cell-id="ZdjWKGI6bNVlR5FEHZFW-7"/><g data-cell-id="bX_caWo315ZGvje-jDk6-1"/><g data-cell-id="XJ7bKyOL_0hXQwAjq0tB-7"/><g data-cell-id="WDzIs54vf-4zkKUbdtyc-6"/><g data-cell-id="tSBzmsZS9faw9SCKfMOF-1"/><g data-cell-id="AxDd3FGQB_12wOL41BuV-1"/><g data-cell-id="AxDd3FGQB_12wOL41BuV-2"/><g data-cell-id="XJ7bKyOL_0hXQwAjq0tB-4"/><g data-cell-id="wyHNNTWQkt2Xfi48w_K_-1"/><g data-cell-id="wyHNNTWQkt2Xfi48w_K_-4"/><g data-cell-id="wyHNNTWQkt2Xfi48w_K_-5"/><g data-cell-id="aPuh5aDubNt3AiDNyjex-2"/><g data-cell-id="wyHNNTWQkt2Xfi48w_K_-8"/><g data-cell-id="wyHNNTWQkt2Xfi48w_K_-9"/><g data-cell-id="wyHNNTWQkt2Xfi48w_K_-11"/><g data-cell-id="wyHNNTWQkt2Xfi48w_K_-12"/><g data-cell-id="wyHNNTWQkt2Xfi48w_K_-13"/><g data-cell-id="wyHNNTWQkt2Xfi48w_K_-16"/><g data-cell-id="wyHNNTWQkt2Xfi48w_K_-17"/><g data-cell-id="wyHNNTWQkt2Xfi48w_K_-19"/><g data-cell-id="Y_fi08IE4hqae7w_Tzpa-1"><g data-cell-id="Y_fi08IE4hqae7w_Tzpa-2"/><g data-cell-id="Y_fi08IE4hqae7w_Tzpa-3"/><g data-cell-id="Y_fi08IE4hqae7w_Tzpa-4"/></g><g data-cell-id="Y_fi08IE4hqae7w_Tzpa-5"><g data-cell-id="Y_fi08IE4hqae7w_Tzpa-6"/><g data-cell-id="Y_fi08IE4hqae7w_Tzpa-7"/><g data-cell-id="Y_fi08IE4hqae7w_Tzpa-8"/></g><g data-cell-id="Y_fi08IE4hqae7w_Tzpa-9"><g data-cell-id="Y_fi08IE4hqae7w_Tzpa-10"/><g data-cell-id="Y_fi08IE4hqae7w_Tzpa-11"/><g data-cell-id="Y_fi08IE4hqae7w_Tzpa-12"/></g><g data-cell-id="Y_fi08IE4hqae7w_Tzpa-13"><g data-cell-id="Y_fi08IE4hqae7w_Tzpa-14"/><g data-cell-id="Y_fi08IE4hqae7w_Tzpa-15"/><g data-cell-id="Y_fi08IE4hqae7w_Tzpa-16"/></g><g data-cell-id="Y_fi08IE4hqae7w_Tzpa-17"/><g data-cell-id="Y_fi08IE4hqae7w_Tzpa-18"/><g data-cell-id="Y_fi08IE4hqae7w_Tzpa-19"><g data-cell-id="Y_fi08IE4hqae7w_Tzpa-20"/><g data-cell-id="Y_fi08IE4hqae7w_Tzpa-21"/><g data-cell-id="Y_fi08IE4hqae7w_Tzpa-22"/></g><g data-cell-id="Y_fi08IE4hqae7w_Tzpa-23"/><g data-cell-id="Y_fi08IE4hqae7w_Tzpa-24"><g data-cell-id="Y_fi08IE4hqae7w_Tzpa-25"/><g data-cell-id="Y_fi08IE4hqae7w_Tzpa-26"/><g data-cell-id="Y_fi08IE4hqae7w_Tzpa-27"/></g><g data-cell-id="Y_fi08IE4hqae7w_Tzpa-28"/><g data-cell-id="Y_fi08IE4hqae7w_Tzpa-29"><g data-cell-id="Y_fi08IE4hqae7w_Tzpa-30"/><g data-cell-id="Y_fi08IE4hqae7w_Tzpa-31"/><g data-cell-id="Y_fi08IE4hqae7w_Tzpa-32"/></g><g data-cell-id="Y_fi08IE4hqae7w_Tzpa-33"/><g data-cell-id="Y_fi08IE4hqae7w_Tzpa-34"/><g data-cell-id="Y_fi08IE4hqae7w_Tzpa-35"/><g data-cell-id="Y_fi08IE4hqae7w_Tzpa-36"/><g data-cell-id="Y_fi08IE4hqae7w_Tzpa-37"/><g data-cell-id="Y_fi08IE4hqae7w_Tzpa-38"><g data-cell-id="Y_fi08IE4hqae7w_Tzpa-39"/><g data-cell-id="Y_fi08IE4hqae7w_Tzpa-40"/><g data-cell-id="Y_fi08IE4hqae7w_Tzpa-41"/><g data-cell-id="Y_fi08IE4hqae7w_Tzpa-42"/><g data-cell-id="Y_fi08IE4hqae7w_Tzpa-43"/><g data-cell-id="Y_fi08IE4hqae7w_Tzpa-44"/></g><g data-cell-id="Y_fi08IE4hqae7w_Tzpa-45"/><g data-cell-id="Y_fi08IE4hqae7w_Tzpa-46"/><g data-cell-id="Y_fi08IE4hqae7w_Tzpa-47"/><g data-cell-id="Y_fi08IE4hqae7w_Tzpa-48"/><g data-cell-id="Y_fi08IE4hqae7w_Tzpa-49"/><g data-cell-id="Y_fi08IE4hqae7w_Tzpa-50"/><g data-cell-id="5oGYHbYtzKlPw1tetjBF-1"/><g data-cell-id="XJ7bKyOL_0hXQwAjq0tB-2"/><g data-cell-id="aPuh5aDubNt3AiDNyjex-1"/><g data-cell-id="XJ7bKyOL_0hXQwAjq0tB-1"/><g data-cell-id="XJ7bKyOL_0hXQwAjq0tB-3"/><g data-cell-id="6HoM5Qsu5IT763Con4xt-4"/><g data-cell-id="6HoM5Qsu5IT763Con4xt-6"/><g data-cell-id="WDzIs54vf-4zkKUbdtyc-1"/><g data-cell-id="WDzIs54vf-4zkKUbdtyc-4"/><g data-cell-id="WDzIs54vf-4zkKUbdtyc-5"/><g data-cell-id="WDzIs54vf-4zkKUbdtyc-10"/><g data-cell-id="WDzIs54vf-4zkKUbdtyc-7"/><g data-cell-id="WDzIs54vf-4zkKUbdtyc-11"/><g data-cell-id="WDzIs54vf-4zkKUbdtyc-12"/><g data-cell-id="WDzIs54vf-4zkKUbdtyc-13"/><g data-cell-id="WDzIs54vf-4zkKUbdtyc-14"/><g data-cell-id="WDzIs54vf-4zkKUbdtyc-15"/><g data-cell-id="WDzIs54vf-4zkKUbdtyc-16"/><g data-cell-id="WDzIs54vf-4zkKUbdtyc-17"/><g data-cell-id="WDzIs54vf-4zkKUbdtyc-18"/><g data-cell-id="WDzIs54vf-4zkKUbdtyc-19"/><g data-cell-id="WDzIs54vf-4zkKUbdtyc-20"/><g data-cell-id="WDzIs54vf-4zkKUbdtyc-21"/><g data-cell-id="WDzIs54vf-4zkKUbdtyc-22"/><g data-cell-id="WDzIs54vf-4zkKUbdtyc-23"/><g data-cell-id="WDzIs54vf-4zkKUbdtyc-24"/><g data-cell-id="WDzIs54vf-4zkKUbdtyc-25"/><g data-cell-id="WDzIs54vf-4zkKUbdtyc-30"/><g data-cell-id="WDzIs54vf-4zkKUbdtyc-26"/><g data-cell-id="WDzIs54vf-4zkKUbdtyc-27"/><g data-cell-id="WDzIs54vf-4zkKUbdtyc-28"/><g data-cell-id="WDzIs54vf-4zkKUbdtyc-31"/><g data-cell-id="WDzIs54vf-4zkKUbdtyc-32"/><g data-cell-id="WDzIs54vf-4zkKUbdtyc-33"/><g data-cell-id="WDzIs54vf-4zkKUbdtyc-34"/><g data-cell-id="WDzIs54vf-4zkKUbdtyc-35"/><g data-cell-id="WDzIs54vf-4zkKUbdtyc-36"/><g data-cell-id="WDzIs54vf-4zkKUbdtyc-37"/></g></g></g></svg>