<?xml version="1.0" encoding="UTF-8"?>
<!DOCTYPE svg PUBLIC "-//W3C//DTD SVG 1.1//EN" "http://www.w3.org/Graphics/SVG/1.1/DTD/svg11.dtd">
<svg xmlns="http://www.w3.org/2000/svg" style="background: transparent; background-color: transparent; color-scheme: light dark;" xmlns:xlink="http://www.w3.org/1999/xlink" version="1.1" width="63px" height="56px" viewBox="-0.5 -0.5 63 56"><defs/><g><g data-cell-id="0"><g data-cell-id="1"><g data-cell-id="uOOALo2DKPWJv4Zl2InU-62"/><g data-cell-id="uOOALo2DKPWJv4Zl2InU-14"/><g data-cell-id="uOOALo2DKPWJv4Zl2InU-23"/><g data-cell-id="uOOALo2DKPWJv4Zl2InU-42"/><g data-cell-id="uOOALo2DKPWJv4Zl2InU-61"/><g data-cell-id="uOOALo2DKPWJv4Zl2InU-63"/><g data-cell-id="uOOALo2DKPWJv4Zl2InU-64"/><g data-cell-id="efvbdfl2VHT3VojU4tKS-1"/><g data-cell-id="tNyDVrq7xn07N7F-I11H-1"/><g data-cell-id="tNyDVrq7xn07N7F-I11H-8"><g data-cell-id="G6x7UwTbpkL1cR1ESIkw-4"/></g><g data-cell-id="tNyDVrq7xn07N7F-I11H-6"/><g data-cell-id="tNyDVrq7xn07N7F-I11H-7"/><g data-cell-id="tNyDVrq7xn07N7F-I11H-13"><g data-cell-id="G6x7UwTbpkL1cR1ESIkw-7"/></g><g data-cell-id="tNyDVrq7xn07N7F-I11H-14"/><g data-cell-id="tNyDVrq7xn07N7F-I11H-12"/><g data-cell-id="G6x7UwTbpkL1cR1ESIkw-3"/><g data-cell-id="SIbyNZ5PKx7ztqdL2jGS-2"/><g data-cell-id="tNyDVrq7xn07N7F-I11H-15"/><g data-cell-id="G6x7UwTbpkL1cR1ESIkw-1"/><g data-cell-id="G6x7UwTbpkL1cR1ESIkw-10"><g data-cell-id="G6x7UwTbpkL1cR1ESIkw-12"/></g><g data-cell-id="G6x7UwTbpkL1cR1ESIkw-18"><g data-cell-id="DSkeY8nCQNupa7w5vkUk-3"/><g data-cell-id="DSkeY8nCQNupa7w5vkUk-4"/></g><g data-cell-id="G6x7UwTbpkL1cR1ESIkw-15"/><g data-cell-id="G6x7UwTbpkL1cR1ESIkw-16"/><g data-cell-id="G6x7UwTbpkL1cR1ESIkw-19"><g data-cell-id="DSkeY8nCQNupa7w5vkUk-5"/></g><g data-cell-id="DSkeY8nCQNupa7w5vkUk-1"/><g data-cell-id="DSkeY8nCQNupa7w5vkUk-2"/><g data-cell-id="DSkeY8nCQNupa7w5vkUk-6"/><g data-cell-id="DSkeY8nCQNupa7w5vkUk-7"/><g data-cell-id="DSkeY8nCQNupa7w5vkUk-8"/><g data-cell-id="DSkeY8nCQNupa7w5vkUk-9"/><g data-cell-id="DSkeY8nCQNupa7w5vkUk-12"/><g data-cell-id="DSkeY8nCQNupa7w5vkUk-13"/><g data-cell-id="DSkeY8nCQNupa7w5vkUk-14"/><g data-cell-id="DSkeY8nCQNupa7w5vkUk-15"/><g data-cell-id="DSkeY8nCQNupa7w5vkUk-16"/><g data-cell-id="SIbyNZ5PKx7ztqdL2jGS-1"/><g data-cell-id="khw4yTepWJyOCelIr60O-1"/><g data-cell-id="sseqbpUNzScJq1bjxb9B-1"/><g data-cell-id="sseqbpUNzScJq1bjxb9B-2"/><g data-cell-id="sseqbpUNzScJq1bjxb9B-3"/><g data-cell-id="mfBjy6P-X11OHKRqBv8D-1"/><g data-cell-id="mfBjy6P-X11OHKRqBv8D-2"/><g data-cell-id="QhB5g_8hklcGdM7FIu2A-2"/><g data-cell-id="QhB5g_8hklcGdM7FIu2A-1"><g><g><svg height="55.44" width="63" xmlns="http://www.w3.org/2000/svg" x="0" y="-0.66" viewBox="0 0 49.8 43.899" style="font-family: initial;"><path fill="#59b4d9" d="M45.04 19a10.94 10.94 0 0 0 .777-4.041c0-6.058-4.905-10.97-10.956-10.97-1.682 0-3.27.39-4.694 1.07C27.798 1.987 24.095 0 19.92 0A12.96 12.96 0 0 0 6.972 12.964c0 .58.052 1.15.125 1.7C2.953 16.24 0 20.234 0 24.93 0 30.99 4.905 35.9 10.956 35.9h29.88a8.97 8.97 0 0 0 8.964-8.975c.001-3.32-1.83-6.368-4.76-7.926z"/><g fill="#fff"><path d="M17.9 15.9h14v20.05h-14z"/><path opacity=".4" d="M34.838 14.747l-9.678-5.69s-.412-.2-.596-.2c-.917-.001-1.664.052-1.664 1.8V15.9h10v20h3V16.322c0-.7-.424-1.324-1.062-1.575z"/></g><path fill="#0072c6" d="M34.444 14.667l-9.667-5.684c-.43-.15-.877.184-.877.655v33.57c0 .47.446.804.877.655l9.667-5.684c.276-.098.46-.36.456-.654V15.322a.69.69 0 0 0-.456-.655z"/></svg></g></g></g><g data-cell-id="xJlOHiyQF1a7nc-b1wtQ-2"/><g data-cell-id="D5QDWhqFUs2y9TANpYPk-1"/><g data-cell-id="xJlOHiyQF1a7nc-b1wtQ-3"/><g data-cell-id="xJlOHiyQF1a7nc-b1wtQ-1"/><g data-cell-id="1ei0CR4h0aUsHhk5xFHv-1"/><g data-cell-id="T1sXBhAIhCtQfk_1aMCt-5"/><g data-cell-id="1ei0CR4h0aUsHhk5xFHv-3"/><g data-cell-id="T1sXBhAIhCtQfk_1aMCt-7"/><g data-cell-id="T1sXBhAIhCtQfk_1aMCt-2"/><g data-cell-id="T1sXBhAIhCtQfk_1aMCt-9"/><g data-cell-id="T1sXBhAIhCtQfk_1aMCt-6"/><g data-cell-id="T1sXBhAIhCtQfk_1aMCt-8"/><g data-cell-id="T1sXBhAIhCtQfk_1aMCt-11"/><g data-cell-id="G_nE93u9n-B-lsNTsYu3-1"/><g data-cell-id="G_nE93u9n-B-lsNTsYu3-2"/><g data-cell-id="zhKt3fNSLgRZPjDAheu--1"/><g data-cell-id="UvL_e13xT3raBQWUSXP_-1"/><g data-cell-id="GsSff52rk4mW3boRFP0h-4"/><g data-cell-id="GsSff52rk4mW3boRFP0h-7"/><g data-cell-id="GsSff52rk4mW3boRFP0h-8"/><g data-cell-id="GsSff52rk4mW3boRFP0h-9"/><g data-cell-id="ZdjWKGI6bNVlR5FEHZFW-1"/><g data-cell-id="ZdjWKGI6bNVlR5FEHZFW-2"/><g data-cell-id="ZdjWKGI6bNVlR5FEHZFW-3"/><g data-cell-id="ZdjWKGI6bNVlR5FEHZFW-4"/><g data-cell-id="ZdjWKGI6bNVlR5FEHZFW-7"/><g data-cell-id="ZdjWKGI6bNVlR5FEHZFW-8"/><g data-cell-id="ZdjWKGI6bNVlR5FEHZFW-9"/><g data-cell-id="ZdjWKGI6bNVlR5FEHZFW-10"/><g data-cell-id="bX_caWo315ZGvje-jDk6-1"/></g></g></g></svg>